<!DOCTYPE svg PUBLIC "-//W3C//DTD SVG 20010904//EN" "http://www.w3.org/TR/2001/REC-SVG-20010904/DTD/svg10.dtd">
<svg version="1.0" xmlns="http://www.w3.org/2000/svg" width="400px" height="193px" viewBox="0 0 4000 1930" preserveAspectRatio="xMidYMid meet">
<g id="layer101" fill="#29547a" stroke="none">
 <path d="M0 965 l0 -965 2000 0 2000 0 0 965 0 965 -2000 0 -2000 0 0 -965z"/>
 </g>
<g id="layer102" fill="#2065a7" stroke="none">
 <path d="M0 965 l0 -965 2000 0 2000 0 0 965 0 965 -2000 0 -2000 0 0 -965z m660 565 c0 -5 -2 -10 -4 -10 -3 0 -8 5 -11 10 -3 6 -1 10 4 10 6 0 11 -4 11 -10z m810 0 c0 -5 -7 -10 -15 -10 -12 0 -15 -18 -15 -103 0 -67 4 -107 12 -115 9 -9 8 -12 -5 -12 -15 0 -17 14 -17 125 0 118 1 125 20 125 11 0 20 -4 20 -10z m497 -6 c2 -7 -6 -10 -22 -7 -19 4 -25 1 -26 -13 0 -11 -3 -14 -6 -6 -9 23 6 44 29 40 12 -2 23 -8 25 -14z m131 -4 c3 -12 2 -12 -8 -3 -7 6 -19 9 -26 6 -8 -3 -14 0 -14 7 0 16 43 8 48 -10z m116 13 c-5 -5 -12 -12 -16 -18 -4 -6 -8 -2 -8 8 0 9 7 17 17 17 9 0 12 -3 7 -7z m122 -22 c-12 -19 -24 -12 -19 10 4 13 9 17 15 11 6 -6 7 -15 4 -21z m74 16 c0 -7 -9 -13 -19 -14 -14 -1 -18 3 -14 13 6 17 33 19 33 1z m124 -14 c-9 -37 -14 -42 -14 -14 0 17 -4 21 -15 17 -8 -3 -15 -2 -15 3 0 13 12 21 32 21 15 0 17 -5 12 -27z m439 20 c-7 -2 -19 -2 -25 0 -7 3 -2 5 12 5 14 0 19 -2 13 -5z m177 0 c-14 -3 -28 -10 -32 -17 -5 -7 -8 -5 -8 7 0 13 8 17 33 16 27 -2 28 -2 7 -6z m100 -13 c0 -16 -6 -20 -32 -19 -31 2 -31 2 -5 6 15 2 27 11 27 19 0 8 2 14 5 14 3 0 5 -9 5 -20z m66 8 c5 -7 2 -9 -8 -5 -9 3 -21 0 -27 -6 -8 -8 -11 -7 -11 6 0 19 35 23 46 5z m121 -5 c-4 -3 -7 0 -7 7 0 7 3 10 7 7 3 -4 3 -10 0 -14z m38 7 c3 -5 1 -10 -4 -10 -6 0 -11 5 -11 10 0 6 2 10 4 10 3 0 8 -4 11 -10z m75 -1 c0 -5 -4 -8 -9 -5 -5 4 -12 0 -14 -6 -3 -8 -6 -6 -6 5 -1 9 6 17 14 17 8 0 15 -5 15 -11z m130 0 c0 -6 -7 -8 -15 -5 -10 4 -19 -2 -25 -17 -8 -21 -9 -21 -9 -1 -1 11 2 24 6 27 11 11 43 8 43 -4z m-3163 -21 c-3 -8 -6 -5 -6 6 -1 11 2 17 5 13 3 -3 4 -12 1 -19z m70 0 c-3 -8 -6 -5 -6 6 -1 11 2 17 5 13 3 -3 4 -12 1 -19z m246 2 c-3 -11 -7 -20 -9 -20 -2 0 -4 9 -4 20 0 11 4 20 9 20 5 0 7 -9 4 -20z m74 -12 c-3 -7 -5 -2 -5 12 0 14 2 19 5 13 2 -7 2 -19 0 -25z m70 15 c-4 -3 -7 0 -7 7 0 7 3 10 7 7 3 -4 3 -10 0 -14z m83 13 c0 -3 -4 -8 -10 -11 -5 -3 -10 -1 -10 4 0 6 5 11 10 11 6 0 10 -2 10 -4z m70 -31 c0 -5 -5 -3 -10 5 -5 8 -10 20 -10 25 0 6 5 3 10 -5 5 -8 10 -19 10 -25z m559 33 c-2 -2 -17 -14 -34 -28 l-30 -25 24 28 c14 15 29 27 34 27 6 0 8 -1 6 -2z m117 -20 l19 -21 -27 18 c-29 18 -34 25 -20 25 5 0 17 -10 28 -22z m879 12 c-3 -5 -1 -10 6 -10 10 0 10 -3 1 -12 -10 -10 -15 -10 -22 2 -10 16 -4 30 11 30 6 0 7 -4 4 -10z m115 -5 c20 -24 6 -28 -15 -5 -10 11 -13 20 -8 20 6 0 16 -7 23 -15z m100 2 c0 -2 -10 -12 -21 -23 -22 -19 -22 -19 -10 4 10 18 31 31 31 19z m149 -31 c-3 -3 -11 5 -18 17 -13 21 -12 21 5 5 10 -10 16 -20 13 -22z m-1269 2 c0 -6 -6 -5 -15 2 -8 7 -15 14 -15 16 0 2 7 1 15 -2 8 -4 15 -11 15 -16z m1187 16 c-3 -3 -12 -4 -19 -1 -8 3 -5 6 6 6 11 1 17 -2 13 -5z m463 -9 c0 -8 -4 -15 -10 -15 -5 0 -7 7 -4 15 4 8 8 15 10 15 2 0 4 -7 4 -15z m40 7 c0 -5 -7 -17 -16 -28 -8 -10 -14 -14 -11 -9 2 6 7 18 10 28 7 17 17 23 17 9z m195 -22 c-4 -12 -9 -19 -12 -17 -3 3 -2 15 2 27 4 12 9 19 12 17 3 -3 2 -15 -2 -27z m-2608 3 c-4 -3 -7 0 -7 7 0 7 3 10 7 7 3 -4 3 -10 0 -14z m643 13 c0 -3 -4 -8 -10 -11 -5 -3 -10 -1 -10 4 0 6 5 11 10 11 6 0 10 -2 10 -4z m347 -13 c-4 -3 -7 0 -7 7 0 7 3 10 7 7 3 -4 3 -10 0 -14z m63 2 c0 -8 -2 -15 -4 -15 -2 0 -6 7 -10 15 -3 8 -1 15 4 15 6 0 10 -7 10 -15z m87 -47 c-2 -13 -4 -3 -4 22 0 25 2 35 4 23 2 -13 2 -33 0 -45z m822 28 c-3 -3 -11 5 -18 17 -13 21 -12 21 5 5 10 -10 16 -20 13 -22z m116 -156 c8 0 15 -4 15 -10 0 -5 -9 -10 -20 -10 -19 0 -20 6 -18 108 l2 107 3 -97 c3 -78 7 -98 18 -98z m-748 158 c-3 -8 -6 -5 -6 6 -1 11 2 17 5 13 3 -3 4 -12 1 -19z m20 0 c-3 -8 -6 -5 -6 6 -1 11 2 17 5 13 3 -3 4 -12 1 -19z m80 0 c-3 -8 -6 -5 -6 6 -1 11 2 17 5 13 3 -3 4 -12 1 -19z m420 5 c-4 -3 -7 0 -7 7 0 7 3 10 7 7 3 -4 3 -10 0 -14z m457 -3 c25 0 32 -4 33 -20 1 -14 -4 -20 -20 -20 -18 0 -19 2 -7 10 15 9 12 11 -37 26 -7 2 -13 9 -12 16 0 10 2 10 6 1 2 -7 19 -13 37 -13z m-1897 -7 c-4 -3 -7 0 -7 7 0 7 3 10 7 7 3 -4 3 -10 0 -14z m373 -20 c0 -32 -5 -28 -14 10 -4 19 -3 26 4 22 5 -3 10 -18 10 -32z m977 15 c-3 -8 -6 -5 -6 6 -1 11 2 17 5 13 3 -3 4 -12 1 -19z m-780 -10 c-3 -8 -6 -5 -6 6 -1 11 2 17 5 13 3 -3 4 -12 1 -19z m815 -10 c-8 -8 -9 -4 -5 13 4 13 8 18 11 10 2 -7 -1 -18 -6 -23z m445 15 c-4 -3 -7 0 -7 7 0 7 3 10 7 7 3 -4 3 -10 0 -14z m-1630 -10 c-4 -3 -7 0 -7 7 0 7 3 10 7 7 3 -4 3 -10 0 -14z m143 -18 c0 -5 -5 -3 -10 5 -5 8 -10 20 -10 25 0 6 5 3 10 -5 5 -8 10 -19 10 -25z m153 15 c3 -11 1 -18 -4 -14 -5 3 -9 12 -9 20 0 20 7 17 13 -6z m165 -40 c0 -9 -3 -7 -8 5 -5 11 -8 29 -8 40 0 16 2 15 8 -5 4 -14 8 -32 8 -40z m1399 23 c-3 -10 -5 -4 -5 12 0 17 2 24 5 18 2 -7 2 -21 0 -30z m-1540 5 c-3 -8 -6 -5 -6 6 -1 11 2 17 5 13 3 -3 4 -12 1 -19z m1074 -59 c-6 -20 -17 -42 -25 -48 -10 -8 -8 1 5 26 10 20 20 53 20 73 1 27 3 29 6 10 3 -13 0 -41 -6 -61z m-1494 49 c47 -44 17 -129 -44 -127 l-28 1 28 8 c42 13 57 29 57 62 0 18 -9 38 -26 53 -15 14 -23 25 -19 25 5 0 19 -10 32 -22z m330 0 c-3 -8 -6 -5 -6 6 -1 11 2 17 5 13 3 -3 4 -12 1 -19z m890 -3 c-15 -14 -33 -25 -39 -25 -6 0 4 11 23 24 44 32 51 32 16 1z m100 3 c-3 -8 -6 -5 -6 6 -1 11 2 17 5 13 3 -3 4 -12 1 -19z m703 7 c-10 -12 -10 -15 3 -15 23 0 47 -28 46 -53 -1 -20 -2 -21 -6 -2 -8 31 -23 45 -49 45 -26 0 -29 21 -4 32 23 10 24 9 10 -7z m-2863 -12 c-4 -3 -7 0 -7 7 0 7 3 10 7 7 3 -4 3 -10 0 -14z m1593 -9 c0 -10 -12 -14 -42 -13 -24 1 -35 3 -25 6 9 2 17 9 17 14 0 6 -5 7 -12 3 -6 -4 -8 -3 -5 3 9 14 67 3 67 -13z m117 19 c-4 -3 -10 -3 -14 0 -3 4 0 7 7 7 7 0 10 -3 7 -7z m298 -3 c-3 -5 -11 -10 -16 -10 -6 0 -7 5 -4 10 3 6 11 10 16 10 6 0 7 -4 4 -10z m584 -23 c0 -21 -1 -21 -9 -2 -12 28 -12 37 0 30 6 -3 10 -16 9 -28z m-1812 16 c-4 -3 -10 -3 -14 0 -3 4 0 7 7 7 7 0 10 -3 7 -7z m415 -25 c-8 -8 -9 -4 -5 13 4 13 8 18 11 10 2 -7 -1 -18 -6 -23z m1509 1 c-9 -22 -10 -22 -10 -3 -1 11 2 24 6 27 12 12 14 0 4 -24z m-1451 -23 c0 -26 -6 -18 -14 19 -5 22 -4 26 4 15 5 -8 10 -24 10 -34z m17 27 c-4 -3 -7 0 -7 7 0 7 3 10 7 7 3 -4 3 -10 0 -14z m531 -42 l-1 -36 -4 35 c-3 19 -10 42 -16 50 -10 13 -10 13 6 1 11 -9 16 -26 15 -50z m160 30 c-7 -12 -16 -21 -21 -21 -8 0 -2 14 16 38 16 20 20 6 5 -17z m671 -16 c0 -5 -4 -3 -9 5 -5 8 -9 22 -9 30 0 16 17 -16 18 -35z m38 23 c-3 -8 -6 -5 -6 6 -1 11 2 17 5 13 3 -3 4 -12 1 -19z m273 -34 c0 -23 -7 -38 -22 -48 -30 -21 -47 -20 -43 2 2 9 4 19 4 22 1 3 5 -1 10 -9 5 -8 16 -11 25 -8 19 8 22 66 4 87 -11 12 -10 12 5 1 10 -8 17 -27 17 -47z m-1573 29 c-4 -3 -7 0 -7 7 0 7 3 10 7 7 3 -4 3 -10 0 -14z m116 -75 c17 -11 97 -10 97 1 0 6 -15 12 -32 14 -29 3 -27 4 10 5 36 2 42 -1 42 -18 0 -18 -7 -20 -70 -20 l-70 0 2 58 c1 53 2 54 5 12 3 -24 10 -48 16 -52z m647 68 c0 -38 45 -74 98 -79 l47 -3 -47 -2 c-39 -2 -51 2 -76 28 -28 28 -48 80 -31 80 5 0 9 -11 9 -24z m-1953 -3 c-4 -3 -7 0 -7 7 0 7 3 10 7 7 3 -4 3 -10 0 -14z m885 -15 c-8 -8 -9 -4 -5 13 4 13 8 18 11 10 2 -7 -1 -18 -6 -23z m1106 7 c-3 -3 -9 2 -12 12 -6 14 -5 15 5 6 7 -7 10 -15 7 -18z m-1231 -2 c-4 -3 -7 0 -7 7 0 7 3 10 7 7 3 -4 3 -10 0 -14z m383 -3 c0 -11 -4 -20 -9 -20 -5 0 -7 9 -4 20 3 11 7 20 9 20 2 0 4 -9 4 -20z m663 0 c-3 -12 -8 -19 -11 -16 -5 6 5 36 12 36 2 0 2 -9 -1 -20z m303 -8 c-17 -16 -18 -16 -5 5 7 12 15 20 18 17 3 -2 -3 -12 -13 -22z m348 -45 c9 -4 23 1 32 10 15 15 16 15 12 -3 -2 -12 -13 -20 -31 -22 -23 -3 -30 2 -42 32 -19 44 -18 62 0 20 8 -17 21 -34 29 -37z m-2977 46 c-4 -3 -10 -3 -14 0 -3 4 0 7 7 7 7 0 10 -3 7 -7z m30 0 c-4 -3 -10 -3 -14 0 -3 4 0 7 7 7 7 0 10 -3 7 -7z m160 0 c-4 -3 -10 -3 -14 0 -3 4 0 7 7 7 7 0 10 -3 7 -7z m283 3 c0 -2 -7 -6 -15 -10 -8 -3 -15 -1 -15 4 0 6 7 10 15 10 8 0 15 -2 15 -4z m167 -3 c-4 -3 -10 -3 -14 0 -3 4 0 7 7 7 7 0 10 -3 7 -7z m20 -10 c-4 -3 -7 0 -7 7 0 7 3 10 7 7 3 -4 3 -10 0 -14z m653 -38 c6 4 7 11 4 17 -4 6 -1 9 5 7 7 -3 11 -9 10 -14 -2 -6 10 -13 27 -16 26 -6 24 -7 -13 -8 -31 -1 -49 5 -72 25 -17 14 -31 31 -31 37 0 6 13 -3 30 -21 16 -18 35 -30 40 -27z m1717 38 c-4 -3 -7 0 -7 7 0 7 3 10 7 7 3 -4 3 -10 0 -14z m-1597 -14 c-7 -11 -14 -18 -17 -15 -3 3 0 12 7 21 18 21 23 19 10 -6z m70 -19 c5 0 11 6 14 13 3 6 5 3 3 -8 -1 -13 -11 -21 -26 -23 -19 -3 -22 0 -17 13 3 9 7 24 7 33 1 10 4 8 6 -5 2 -13 8 -23 13 -23z m257 23 c-4 -3 -7 0 -7 7 0 7 3 10 7 7 3 -4 3 -10 0 -14z m600 -33 c27 0 34 3 29 15 -3 9 0 15 8 15 15 0 28 -24 19 -34 -4 -3 -25 -6 -47 -6 -46 0 -86 22 -86 47 0 11 6 8 21 -11 15 -19 30 -26 56 -26z m-972 30 c-3 -5 -12 -10 -18 -10 -7 0 -6 4 3 10 19 12 23 12 15 0z m-238 -7 c-4 -3 -10 -3 -14 0 -3 4 0 7 7 7 7 0 10 -3 7 -7z m604 -13 c10 0 19 -5 19 -11 0 -20 -45 -5 -47 16 -2 11 0 14 3 8 3 -7 14 -13 25 -13z m263 -12 c7 -5 4 -8 -6 -8 -12 0 -18 7 -17 23 0 15 2 17 6 7 3 -8 11 -18 17 -22z m336 22 c0 -5 -2 -10 -4 -10 -3 0 -8 5 -11 10 -3 6 -1 10 4 10 6 0 11 -4 11 -10z m197 3 c-4 -3 -10 -3 -14 0 -3 4 0 7 7 7 7 0 10 -3 7 -7z m-2177 -7 c0 -3 -5 -8 -12 -12 -7 -4 -8 -3 -4 4 7 12 16 16 16 8z m77 -13 c-4 -3 -7 0 -7 7 0 7 3 10 7 7 3 -4 3 -10 0 -14z m288 7 c3 -5 4 -10 1 -10 -3 0 -8 5 -11 10 -3 6 -4 10 -1 10 3 0 8 -4 11 -10z m915 -5 c0 -9 -9 -15 -25 -15 -14 0 -25 4 -25 9 0 5 9 7 20 4 11 -3 20 0 20 6 0 6 2 11 5 11 3 0 5 -7 5 -15z m397 8 c-4 -3 -10 -3 -14 0 -3 4 0 7 7 7 7 0 10 -3 7 -7z m1108 -15 c6 -4 2 -8 -7 -8 -10 0 -18 7 -18 17 0 9 3 12 8 7 4 -5 12 -12 17 -16z m42 15 c-4 -3 -10 -3 -14 0 -3 4 0 7 7 7 7 0 10 -3 7 -7z m-2540 -20 c-4 -3 -7 0 -7 7 0 7 3 10 7 7 3 -4 3 -10 0 -14z m1453 7 c-8 -5 -24 -9 -35 -9 -16 1 -16 2 5 9 35 11 48 11 30 0z m-63 -7 c-4 -3 -10 -3 -14 0 -3 4 0 7 7 7 7 0 10 -3 7 -7z m-642 -233 c3 -5 4 -10 1 -10 -3 0 -8 5 -11 10 -3 6 -4 10 -1 10 3 0 8 -4 11 -10z m-208 -7 c-4 -3 -10 -3 -14 0 -3 4 0 7 7 7 7 0 10 -3 7 -7z m56 0 c-7 -2 -21 -2 -30 0 -10 3 -4 5 12 5 17 0 24 -2 18 -5z m87 -8 c0 -8 -2 -15 -4 -15 -2 0 -6 7 -10 15 -3 8 -1 15 4 15 6 0 10 -7 10 -15z m200 11 c0 -2 -7 -7 -16 -10 -8 -3 -12 -2 -9 4 6 10 25 14 25 6z m67 -3 c-4 -3 -10 -3 -14 0 -3 4 0 7 7 7 7 0 10 -3 7 -7z m152 -20 c-1 -22 -2 -23 -6 -8 -3 11 -10 23 -17 27 -7 5 -5 8 7 8 12 0 17 -7 16 -27z m121 23 c0 -2 -13 -6 -30 -8 -16 -3 -30 -1 -30 4 0 4 14 8 30 8 17 0 30 -2 30 -4z m30 -6 c0 -5 -2 -10 -4 -10 -3 0 -8 5 -11 10 -3 6 -1 10 4 10 6 0 11 -4 11 -10z m117 3 c-4 -3 -10 -3 -14 0 -3 4 0 7 7 7 7 0 10 -3 7 -7z m66 0 c-7 -2 -19 -2 -25 0 -7 3 -2 5 12 5 14 0 19 -2 13 -5z m-176 -40 c-4 -3 -7 0 -7 7 0 7 3 10 7 7 3 -4 3 -10 0 -14z m90 0 c-4 -3 -7 0 -7 7 0 7 3 10 7 7 3 -4 3 -10 0 -14z m-70 -60 c-4 -3 -7 0 -7 7 0 7 3 10 7 7 3 -4 3 -10 0 -14z m-820 -80 c-4 -3 -10 -3 -14 0 -3 4 0 7 7 7 7 0 10 -3 7 -7z m308 -43 c3 -5 1 -10 -4 -10 -6 0 -11 5 -11 10 0 6 2 10 4 10 3 0 8 -4 11 -10z m490 0 c3 -5 4 -10 1 -10 -3 0 -8 5 -11 10 -3 6 -4 10 -1 10 3 0 8 -4 11 -10z m-798 -7 c-4 -3 -10 -3 -14 0 -3 4 0 7 7 7 7 0 10 -3 7 -7z m120 0 c-4 -3 -10 -3 -14 0 -3 4 0 7 7 7 7 0 10 -3 7 -7z m90 0 c-4 -3 -10 -3 -14 0 -3 4 0 7 7 7 7 0 10 -3 7 -7z m190 0 c-4 -3 -10 -3 -14 0 -3 4 0 7 7 7 7 0 10 -3 7 -7z m103 -139 c0 -3 -7 -12 -15 -20 -13 -14 -15 -13 -15 5 0 12 6 21 15 21 8 0 15 -3 15 -6z m117 -31 c-4 -3 -7 0 -7 7 0 7 3 10 7 7 3 -4 3 -10 0 -14z m102 -29 c14 -12 -19 -1 -35 12 -18 14 -18 14 6 3 14 -6 27 -13 29 -15z m-439 12 c0 -2 -7 -7 -16 -10 -8 -3 -12 -2 -9 4 6 10 25 14 25 6z m465 -26 c3 -5 4 -10 1 -10 -3 0 -8 5 -11 10 -3 6 -4 10 -1 10 3 0 8 -4 11 -10z m-525 -4 c0 -3 -5 -8 -12 -12 -7 -4 -8 -3 -4 4 7 12 16 16 16 8z m561 -23 c13 -16 12 -17 -3 -4 -10 7 -18 15 -18 17 0 8 8 3 21 -13z m-281 -111 c0 -84 -4 -113 -16 -128 -15 -18 -15 -18 -8 6 4 14 9 71 11 128 3 56 6 102 9 102 2 0 4 -49 4 -108z m315 78 c3 -5 4 -10 1 -10 -3 0 -8 5 -11 10 -3 6 -4 10 -1 10 3 0 8 -4 11 -10z m-665 -14 c0 -3 -5 -8 -12 -12 -7 -4 -8 -3 -4 4 7 12 16 16 16 8z m685 -16 c3 -5 4 -10 1 -10 -3 0 -8 5 -11 10 -3 6 -4 10 -1 10 3 0 8 -4 11 -10z m-258 -27 c-4 -3 -7 0 -7 7 0 7 3 10 7 7 3 -4 3 -10 0 -14z m-180 -30 c-4 -3 -7 0 -7 7 0 7 3 10 7 7 3 -4 3 -10 0 -14z m-280 -30 c-3 -10 -5 -4 -5 12 0 17 2 24 5 18 2 -7 2 -21 0 -30z m360 5 c-3 -7 -5 -2 -5 12 0 14 2 19 5 13 2 -7 2 -19 0 -25z m370 -35 c-4 -3 -7 0 -7 7 0 7 3 10 7 7 3 -4 3 -10 0 -14z m-272 -23 c3 -5 4 -10 1 -10 -3 0 -8 5 -11 10 -3 6 -4 10 -1 10 3 0 8 -4 11 -10z m202 3 c-4 -3 -10 -3 -14 0 -3 4 0 7 7 7 7 0 10 -3 7 -7z m-494 -10 c-7 -2 -19 -2 -25 0 -7 3 -2 5 12 5 14 0 19 -2 13 -5z m430 0 c-7 -2 -21 -2 -30 0 -10 3 -4 5 12 5 17 0 24 -2 18 -5z m-568 -33 c3 -5 4 -10 1 -10 -3 0 -8 5 -11 10 -3 6 -4 10 -1 10 3 0 8 -4 11 -10z m685 -3 c0 -2 -19 -21 -42 -42 -40 -37 -41 -37 -10 -4 18 19 29 38 26 42 -4 4 0 7 9 7 10 0 17 -1 17 -3z m-80 -11 c0 -3 -5 -8 -12 -12 -7 -4 -8 -3 -4 4 7 12 16 16 16 8z m-535 -56 c3 -5 4 -10 1 -10 -3 0 -8 5 -11 10 -3 6 -4 10 -1 10 3 0 8 -4 11 -10z m212 -76 c-3 -3 -12 -4 -19 -1 -8 3 -5 6 6 6 11 1 17 -2 13 -5z m140 0 c-3 -3 -12 -4 -19 -1 -8 3 -5 6 6 6 11 1 17 -2 13 -5z"/>
 </g>
<g id="layer103" fill="#fcfefe" stroke="none">
 <path d="M0 965 l0 -965 2000 0 2000 0 0 965 0 965 -2000 0 -2000 0 0 -965z m521 563 c1 -7 1 -39 -1 -70 -2 -80 5 -98 41 -98 27 0 29 -3 29 -35 l0 -35 -115 0 -115 0 0 35 c0 33 2 35 35 35 l35 0 0 90 0 90 45 0 c29 0 45 -5 46 -12z m162 -60 l24 -73 23 73 24 72 43 0 c25 0 43 -5 43 -11 0 -6 -19 -62 -42 -125 l-42 -115 -50 3 -51 3 -42 115 c-23 63 -42 118 -42 123 -1 4 19 7 43 7 l44 0 25 -72z m307 -18 l0 -90 30 0 c19 0 30 -5 31 -15 5 -53 12 -50 -108 -53 l-113 -3 0 36 c0 32 2 35 30 35 l30 0 0 90 0 90 50 0 50 0 0 -90z m149 31 c11 -32 21 -64 21 -71 0 -25 15 2 36 63 l21 62 46 3 47 3 -36 -98 c-20 -54 -41 -111 -46 -126 -10 -26 -13 -28 -61 -25 l-51 3 -37 105 c-20 58 -40 113 -44 123 -6 15 -1 17 38 17 l44 0 22 -59z m331 14 c0 -43 1 -44 38 -51 51 -9 82 -39 82 -81 0 -52 -28 -73 -100 -73 l-60 0 0 125 c0 118 1 125 20 125 17 0 20 -7 20 -45z m342 4 c48 -57 35 -165 -23 -195 -46 -23 -94 -18 -131 15 -27 24 -32 36 -36 89 -4 60 -3 63 32 98 34 34 40 36 84 31 37 -4 52 -12 74 -38z m172 -46 c11 -46 22 -83 26 -83 3 0 12 33 19 74 15 86 22 99 47 94 18 -3 30 -39 79 -226 5 -20 2 -23 -17 -20 -20 3 -25 14 -44 93 l-21 90 -11 -52 c-6 -29 -15 -71 -18 -93 -6 -37 -9 -41 -32 -38 -23 3 -27 10 -46 93 l-21 90 -20 -90 c-18 -79 -24 -90 -44 -93 -18 -3 -22 0 -17 15 3 10 15 61 26 113 28 125 27 122 52 118 20 -3 26 -15 42 -85z m351 67 c0 -11 -14 -16 -50 -20 -43 -4 -50 -8 -53 -29 -4 -23 10 -45 29 -47 5 -1 20 -2 34 -3 44 -2 30 -30 -17 -33 -38 -3 -43 -6 -43 -28 0 -23 4 -25 48 -28 39 -3 47 -6 47 -23 0 -17 -7 -19 -70 -19 l-70 0 0 125 0 126 73 -3 c56 -2 72 -6 72 -18z m75 -30 c0 -35 5 -52 14 -56 26 -10 51 13 61 58 9 33 16 44 34 46 18 3 22 0 17 -15 -3 -10 -8 -31 -12 -48 -4 -16 -11 -36 -17 -43 -7 -9 -5 -18 7 -30 9 -10 16 -33 16 -50 0 -42 -31 -62 -97 -62 l-53 0 -1 38 c-1 35 0 188 1 205 0 4 7 7 15 7 11 0 15 -12 15 -50z m392 20 c34 -42 14 -86 -53 -120 -21 -11 -39 -27 -39 -35 0 -20 36 -37 62 -29 21 6 42 -12 32 -28 -7 -12 -82 -10 -105 3 -11 5 -24 22 -30 36 -13 34 9 67 59 91 28 13 37 23 37 42 0 23 -3 25 -47 24 -30 0 -49 5 -52 13 -15 39 105 41 136 3z m215 10 c62 -37 69 -146 13 -202 -23 -22 -37 -28 -73 -28 -87 0 -137 89 -101 179 27 68 97 91 161 51z m233 1 c0 -17 -8 -20 -47 -23 l-46 -3 -2 -95 c-3 -117 -1 -110 -25 -110 -19 0 -20 7 -20 125 l0 125 70 0 c63 0 70 -2 70 -19z m72 -18 c8 -30 12 -33 48 -33 35 0 39 3 50 35 11 32 36 46 52 30 3 -3 -10 -54 -29 -113 -19 -59 -36 -113 -39 -120 -2 -8 -15 -12 -31 -10 -26 3 -31 11 -65 113 -44 132 -44 137 -16 133 15 -2 24 -13 30 -35z m234 -16 c2 -57 7 -63 36 -50 15 7 26 24 33 54 9 34 16 45 34 47 18 3 22 0 17 -15 -3 -10 -8 -31 -12 -48 -4 -16 -11 -36 -17 -43 -7 -9 -5 -18 7 -30 9 -10 16 -33 16 -50 0 -42 -31 -62 -97 -62 l-53 0 0 126 c0 114 2 125 17 122 14 -2 18 -14 19 -51z m-1726 -500 l23 -72 25 73 26 72 48 0 c26 0 48 -3 47 -7 0 -5 -21 -60 -47 -123 l-47 -115 -51 -3 -51 -3 -28 73 c-52 139 -65 173 -65 175 0 3 75 8 86 5 6 -1 21 -35 34 -75z m495 4 c10 -34 21 -61 25 -61 3 0 15 28 26 63 l20 62 51 3 51 3 -48 -123 -48 -123 -53 0 -53 0 -47 122 -47 122 37 3 c54 5 66 -5 86 -71z m-665 -16 l0 -85 36 0 c35 0 35 -1 32 -37 l-3 -38 -120 0 -120 0 -3 38 -3 37 40 0 41 0 0 85 0 85 50 0 50 0 0 -85z m500 0 l0 -85 36 0 c35 0 35 -1 32 -37 l-3 -38 -120 0 -120 0 -3 38 c-3 36 -3 37 32 37 l36 0 0 85 0 85 55 0 55 0 0 -85z m-148 -472 l3 -188 80 1 c44 1 118 9 163 18 46 10 86 16 88 13 12 -12 -79 -89 -137 -116 -132 -62 -305 -62 -435 0 -55 26 -143 104 -131 116 3 2 40 -3 83 -12 115 -24 220 -31 239 -15 12 10 15 43 15 191 0 151 2 179 15 179 12 0 15 -30 17 -187z m-125 102 c8 -33 20 -95 27 -138 19 -113 18 -114 -130 -98 -171 18 -164 15 -164 68 0 58 22 104 72 149 45 40 133 84 162 81 15 -2 23 -16 33 -62z m318 37 c33 -16 74 -41 92 -56 41 -34 73 -102 73 -153 0 -47 5 -45 -170 -64 -148 -16 -150 -15 -126 108 33 174 38 193 55 193 9 0 43 -13 76 -28z"/>
 <path d="M1474 1386 c-9 -37 -1 -61 22 -64 23 -3 54 21 54 43 0 20 -28 45 -51 45 -11 0 -21 -9 -25 -24z"/>
 <path d="M1687 1482 c-40 -44 -28 -135 20 -153 73 -28 124 89 66 154 -21 22 -65 22 -86 -1z"/>
 <path d="M2419 1396 c0 -3 -1 -21 -2 -38 -1 -30 2 -33 28 -33 57 0 59 66 1 73 -14 2 -26 1 -27 -2z"/>
 <path d="M2916 1484 c-39 -39 -30 -128 16 -153 25 -14 29 -14 55 5 23 17 29 30 31 68 4 61 -17 96 -58 96 -15 0 -36 -7 -44 -16z"/>
 <path d="M3346 1408 c4 -13 11 -34 16 -48 10 -24 11 -23 24 20 7 25 14 46 14 48 0 1 -14 2 -31 2 -27 0 -30 -3 -23 -22z"/>
 <path d="M3555 1370 c-8 -37 4 -53 35 -48 53 7 50 70 -3 76 -21 3 -26 -2 -32 -28z"/>
 </g>

</svg>